<?xml version="1.0" standalone="no"?>
<!DOCTYPE svg PUBLIC "-//W3C//DTD SVG 20010904//EN"
 "http://www.w3.org/TR/2001/REC-SVG-20010904/DTD/svg10.dtd">
<svg version="1.0" xmlns="http://www.w3.org/2000/svg"
 width="400pt" height="768pt" viewBox="0 0 768.000000 768.000000"
 preserveAspectRatio="xMidYMid meet">
<metadata>
Created by potrace 1.10, written by Peter Selinger 2001-2011
</metadata>
<g transform="translate(0.000000,768.000000) scale(0.100000,-0.100000)"
fill="#3d85c6" stroke="none">
<path d="M3762 7483 c-7 -21 -17 -53 -22 -72 -5 -18 -13 -38 -19 -44 -6 -6
-11 -21 -11 -34 0 -12 -6 -37 -14 -55 -21 -51 -37 -99 -46 -138 -8 -34 -14
-53 -40 -130 -7 -19 -15 -53 -19 -75 -4 -22 -13 -50 -19 -62 -7 -12 -12 -35
-12 -51 0 -41 -14 -49 -100 -55 -73 -4 -153 -18 -235 -38 -22 -6 -61 -14 -88
-18 -26 -4 -53 -13 -59 -19 -28 -28 -57 -13 -107 56 -28 37 -54 72 -59 77 -4
6 -36 46 -70 90 -121 156 -191 242 -223 274 -8 9 -28 33 -43 54 -31 40 -73 50
-96 22 -7 -8 -19 -15 -27 -15 -8 0 -27 -6 -41 -13 -15 -8 -43 -21 -62 -29 -19
-8 -82 -39 -140 -67 -99 -49 -114 -57 -157 -81 -10 -5 -39 -20 -66 -32 -53
-26 -58 -44 -32 -118 8 -23 15 -58 15 -77 0 -18 7 -50 15 -70 8 -19 15 -51 15
-70 0 -18 7 -50 15 -70 8 -19 15 -49 15 -65 0 -16 7 -45 15 -65 8 -19 15 -47
15 -62 0 -14 7 -39 15 -55 8 -15 15 -37 15 -47 0 -11 6 -35 14 -54 l15 -34
-42 -25 c-23 -13 -56 -38 -74 -54 -18 -17 -52 -44 -75 -61 -24 -17 -81 -69
-127 -116 -88 -88 -122 -104 -151 -70 -7 8 -18 15 -25 15 -8 0 -26 6 -42 14
-15 8 -46 22 -68 31 -22 10 -53 24 -68 31 -16 8 -35 14 -42 14 -7 0 -26 6 -42
14 -52 26 -104 46 -118 46 -7 0 -26 6 -42 14 -53 26 -104 46 -119 46 -8 0 -26
7 -39 16 -34 22 -77 15 -92 -16 -7 -14 -30 -45 -53 -70 -22 -25 -40 -49 -40
-53 0 -5 -20 -35 -45 -67 -25 -32 -45 -63 -45 -69 0 -6 -4 -11 -8 -11 -5 0
-14 -10 -21 -22 -6 -13 -20 -36 -31 -53 -11 -16 -23 -37 -27 -45 -3 -8 -18
-31 -33 -50 -37 -47 -44 -74 -26 -93 8 -8 47 -52 87 -98 84 -98 129 -146 296
-318 124 -127 140 -154 108 -181 -8 -7 -15 -18 -15 -25 0 -8 -6 -26 -14 -42
-27 -54 -46 -104 -46 -121 0 -9 -7 -26 -15 -36 -8 -11 -15 -31 -15 -45 -1 -14
-7 -37 -15 -51 -8 -14 -14 -38 -15 -53 0 -15 -7 -41 -14 -56 -14 -26 -21 -29
-93 -35 -43 -3 -94 -11 -113 -16 -19 -6 -57 -10 -85 -10 -28 0 -66 -5 -85 -11
-19 -5 -66 -14 -105 -18 -38 -5 -95 -14 -125 -20 -30 -6 -76 -14 -103 -17 -66
-8 -76 -26 -87 -170 -5 -66 -14 -153 -19 -194 -6 -41 -10 -130 -11 -196 0
-118 1 -122 23 -127 32 -7 88 -28 119 -43 14 -8 35 -14 47 -14 11 0 35 -6 53
-14 51 -21 99 -37 138 -46 19 -4 50 -13 68 -19 17 -6 47 -16 65 -22 17 -6 48
-14 67 -19 19 -4 48 -13 63 -19 16 -6 41 -11 56 -11 40 0 51 -17 51 -85 0 -33
7 -87 15 -118 8 -32 15 -73 15 -91 0 -19 7 -50 15 -69 8 -20 15 -48 15 -61 0
-14 8 -41 17 -61 21 -44 15 -57 -53 -103 -27 -18 -58 -41 -69 -50 -11 -10 -58
-46 -105 -82 -47 -35 -89 -69 -95 -75 -5 -6 -30 -27 -55 -45 -43 -33 -83 -67
-119 -101 -9 -8 -33 -28 -53 -43 -41 -31 -51 -73 -23 -96 8 -7 15 -19 15 -27
0 -8 6 -27 13 -41 8 -15 21 -43 29 -62 8 -19 29 -64 45 -100 17 -36 34 -72 37
-80 4 -8 22 -42 40 -75 19 -33 45 -81 58 -107 20 -42 27 -48 54 -48 17 0 48 7
67 15 20 8 52 15 70 15 19 0 54 7 77 15 23 8 59 15 79 15 20 1 47 7 61 15 14
8 40 14 58 15 18 0 49 7 69 15 19 8 45 15 57 15 11 0 41 6 66 14 118 38 133
41 138 27 17 -52 296 -371 324 -371 14 0 8 -67 -7 -80 -8 -7 -15 -18 -15 -25
0 -8 -6 -26 -14 -42 -8 -15 -22 -46 -32 -68 -9 -22 -23 -52 -31 -67 -7 -14
-13 -33 -13 -41 0 -9 -7 -29 -15 -46 -8 -17 -22 -45 -30 -62 -8 -17 -15 -37
-15 -46 0 -8 -6 -27 -14 -41 -16 -33 -36 -88 -43 -122 -3 -14 -12 -32 -20 -42
-22 -25 -13 -80 16 -94 13 -7 26 -16 30 -21 12 -17 89 -73 100 -73 7 0 14 -7
17 -15 4 -8 12 -15 19 -15 7 0 15 -7 19 -15 3 -8 10 -15 17 -15 6 0 28 -12 48
-27 48 -37 72 -52 93 -59 10 -4 18 -10 18 -14 0 -5 10 -12 23 -16 12 -4 42
-22 66 -40 47 -36 75 -43 88 -20 4 7 44 44 88 82 113 97 149 131 309 286 142
138 169 155 196 123 7 -8 18 -15 25 -15 8 0 26 -6 42 -14 15 -8 48 -22 73 -31
25 -9 60 -23 78 -31 18 -8 41 -14 51 -14 10 0 32 -7 47 -15 16 -8 42 -15 57
-15 15 0 41 -7 57 -15 27 -14 30 -21 30 -63 0 -26 7 -78 15 -117 8 -38 15 -90
15 -115 0 -25 7 -70 15 -100 8 -30 15 -73 15 -95 0 -22 5 -56 11 -75 6 -19 15
-69 19 -109 13 -105 19 -109 166 -121 65 -5 155 -14 199 -19 44 -6 134 -10
200 -10 l121 -1 18 58 c10 31 24 69 32 84 8 14 14 37 14 50 0 13 5 29 11 35 6
6 15 29 19 50 5 21 13 53 19 71 6 17 16 47 22 65 6 17 13 43 16 57 3 14 11 39
19 57 8 17 14 40 14 51 0 11 7 36 15 55 8 20 15 49 15 65 0 42 17 52 90 52 36
0 81 5 100 11 19 6 62 14 95 19 62 9 127 24 180 42 71 24 71 24 119 -43 25
-35 51 -71 59 -80 7 -8 42 -53 77 -100 35 -46 69 -88 75 -94 6 -5 27 -30 45
-55 19 -25 45 -56 57 -70 73 -81 94 -107 99 -123 7 -22 66 -23 84 -2 7 8 23
15 35 15 12 0 28 7 35 15 7 8 23 15 35 15 12 0 28 7 35 15 7 8 19 15 27 15 8
0 27 6 41 14 15 8 34 17 42 20 8 4 56 28 105 55 50 27 111 60 138 73 42 20 47
26 47 56 0 18 -5 43 -11 54 -7 12 -15 47 -19 77 -7 54 -15 92 -40 191 -6 25
-15 65 -19 90 -4 25 -12 61 -18 80 -11 33 -21 74 -43 160 -5 19 -11 45 -15 56
-6 18 2 28 39 53 104 72 336 281 336 303 0 14 67 9 80 -7 7 -8 18 -15 25 -15
8 0 26 -6 42 -14 15 -8 46 -22 68 -31 22 -10 53 -24 68 -31 16 -8 35 -14 42
-14 7 0 26 -6 42 -14 50 -24 97 -44 118 -49 11 -3 45 -15 75 -27 30 -12 66
-24 80 -27 14 -3 32 -11 40 -18 41 -33 69 -24 115 37 6 7 25 32 43 54 17 23
32 46 32 51 0 4 10 19 23 33 37 42 113 154 123 182 4 10 10 18 14 18 5 0 12
10 16 23 4 12 19 38 35 58 38 48 46 83 22 100 -10 8 -47 48 -83 89 -90 105
-126 143 -282 304 -138 142 -156 169 -123 196 8 7 15 18 15 25 0 8 6 26 14 42
8 15 22 48 31 73 9 25 23 60 31 78 8 18 14 41 14 51 0 10 7 32 15 47 8 16 15
42 15 57 0 15 7 41 15 57 14 27 21 30 63 30 26 0 78 7 117 15 38 8 90 15 115
15 25 0 70 7 100 15 30 8 74 15 97 15 23 0 54 5 70 11 15 6 64 15 108 20 110
12 112 16 125 169 6 69 15 161 20 205 5 44 9 132 9 195 l1 115 -37 13 c-21 7
-51 17 -68 22 -16 4 -46 14 -65 21 -19 6 -51 17 -70 24 -19 7 -51 18 -70 25
-19 6 -51 15 -70 19 -19 4 -45 13 -57 19 -12 7 -30 12 -41 12 -11 0 -33 7 -48
15 -16 8 -39 15 -50 15 -12 0 -38 7 -57 15 -20 8 -49 15 -65 15 -41 0 -49 15
-55 100 -4 72 -16 144 -39 240 -6 25 -14 64 -18 88 -4 24 -12 48 -18 54 -28
28 -13 57 56 107 37 28 72 54 77 59 6 4 46 36 90 70 156 121 242 191 274 223
9 8 33 28 54 43 40 31 50 73 22 96 -8 7 -15 19 -15 27 0 8 -6 27 -13 41 -8 15
-21 43 -29 62 -8 19 -29 64 -45 100 -17 36 -34 72 -37 80 -4 8 -22 42 -40 75
-19 33 -45 81 -58 108 -26 53 -44 58 -118 32 -23 -8 -58 -15 -77 -15 -18 0
-50 -7 -70 -15 -19 -8 -51 -15 -70 -15 -18 0 -50 -7 -70 -15 -19 -8 -47 -15
-62 -15 -14 0 -46 -6 -71 -14 -25 -8 -65 -19 -90 -26 -25 -6 -61 -15 -80 -20
-88 -23 -84 -23 -105 14 -31 54 -121 161 -222 266 -96 98 -113 131 -78 160 8
7 15 18 15 25 0 8 6 26 14 42 8 15 22 46 31 68 10 22 24 53 31 68 8 16 14 35
14 42 0 7 6 26 14 42 26 52 46 104 46 118 0 7 6 26 14 42 26 53 46 104 46 119
0 8 7 26 16 39 22 33 15 77 -15 92 -14 6 -36 23 -50 36 -15 13 -44 35 -67 49
-22 15 -47 32 -55 40 -26 24 -78 58 -89 58 -5 0 -10 4 -10 8 0 5 -10 14 -22
21 -13 6 -36 20 -53 31 -16 11 -37 23 -45 27 -8 3 -31 18 -50 33 -47 37 -74
44 -93 26 -8 -8 -52 -47 -98 -87 -97 -84 -146 -129 -318 -296 -69 -68 -131
-125 -138 -127 -6 -3 -23 4 -36 15 -14 10 -31 19 -39 19 -7 0 -22 7 -32 15
-11 8 -29 15 -40 15 -12 0 -30 7 -40 15 -11 8 -29 15 -40 15 -12 0 -30 7 -40
15 -11 8 -31 15 -45 15 -14 1 -37 7 -51 15 -14 8 -38 14 -53 15 -15 0 -41 7
-56 14 -26 14 -29 21 -35 93 -3 43 -11 94 -16 113 -6 19 -10 55 -10 80 0 25
-7 72 -15 103 -8 32 -15 75 -15 96 0 21 -7 60 -15 87 -8 27 -15 65 -15 85 0
62 -12 100 -35 115 -14 9 -69 18 -141 24 -66 6 -157 14 -204 19 -47 5 -135 10
-195 10 l-110 1 -13 -37z m373 -79 c55 -3 124 -12 153 -20 46 -13 55 -20 69
-51 17 -43 52 -213 58 -293 27 -307 72 -409 200 -450 90 -28 272 -93 295 -105
14 -7 53 -18 86 -25 58 -11 63 -11 114 15 30 15 72 44 94 65 23 21 77 72 121
113 203 189 250 230 282 245 31 15 37 15 78 0 64 -24 302 -186 339 -230 15
-19 17 -33 11 -83 -3 -33 -13 -71 -21 -85 -18 -33 -54 -131 -54 -149 0 -8 -6
-22 -14 -30 -8 -9 -28 -54 -44 -101 -17 -47 -42 -116 -57 -155 -43 -114 -30
-149 122 -325 41 -47 88 -102 106 -123 52 -63 89 -97 134 -124 l43 -25 106 17
c58 9 124 23 147 31 23 8 89 24 147 35 58 11 132 26 166 34 77 18 133 12 156
-18 10 -12 18 -27 18 -33 0 -5 13 -31 29 -56 16 -25 32 -56 36 -69 4 -13 25
-59 45 -101 22 -45 39 -96 42 -123 4 -51 11 -42 -132 -166 -38 -34 -139 -113
-215 -169 -78 -57 -167 -152 -188 -199 -18 -41 -18 -48 -4 -105 21 -86 33
-146 53 -261 22 -131 39 -176 83 -220 43 -44 84 -66 171 -89 114 -31 404 -128
442 -147 48 -24 59 -46 60 -117 1 -88 -20 -313 -32 -349 -15 -42 -68 -67 -185
-87 -84 -14 -224 -33 -305 -41 -19 -1 -66 -9 -104 -16 -63 -11 -74 -17 -132
-72 -48 -44 -65 -68 -70 -95 -4 -21 -20 -73 -36 -117 -17 -44 -34 -91 -38
-105 -5 -14 -20 -56 -34 -94 -34 -92 -34 -153 0 -209 30 -47 25 -41 166 -192
193 -207 258 -288 258 -320 0 -12 -11 -43 -25 -69 -37 -69 -124 -196 -135
-196 -6 0 -10 -8 -10 -17 0 -29 -64 -91 -101 -98 -35 -6 -163 27 -174 45 -3 6
-17 10 -30 10 -13 0 -57 16 -98 35 -41 19 -84 35 -94 35 -11 0 -37 11 -57 25
-39 26 -126 55 -192 62 -45 5 -112 -22 -150 -61 -11 -12 -38 -35 -60 -53 -144
-118 -237 -203 -270 -250 -47 -66 -47 -99 1 -318 7 -33 20 -85 29 -115 9 -30
20 -82 25 -115 5 -33 14 -73 20 -88 19 -49 14 -102 -14 -135 -44 -52 -357
-195 -407 -185 -27 5 -124 108 -198 210 -19 26 -38 50 -41 53 -4 3 -33 39 -66
80 -90 112 -133 155 -181 179 -40 20 -48 21 -125 11 -45 -6 -137 -22 -204 -36
-67 -13 -133 -24 -145 -24 -37 -1 -100 -34 -144 -77 -36 -35 -46 -56 -87 -184
-25 -79 -50 -160 -56 -179 -5 -19 -19 -60 -30 -90 -12 -30 -21 -64 -21 -75 0
-11 -16 -44 -35 -72 -46 -69 -63 -73 -254 -61 -166 11 -227 27 -254 70 -18 27
-41 142 -57 278 -13 109 -48 303 -62 340 -11 31 -97 120 -116 120 -18 0 -145
41 -157 51 -17 13 -216 80 -270 90 -44 9 -56 7 -105 -15 -30 -13 -73 -41 -95
-61 -53 -50 -247 -231 -308 -288 -26 -24 -67 -55 -91 -68 l-44 -23 -74 36
c-78 39 -254 167 -286 208 -16 21 -18 34 -11 80 8 58 57 200 107 312 51 112
95 250 95 298 1 51 -28 104 -100 185 -25 28 -59 67 -76 88 -78 93 -174 189
-214 213 -40 23 -48 24 -105 15 -60 -9 -160 -31 -388 -87 -112 -28 -215 -37
-242 -23 -20 11 -118 177 -118 200 0 9 -6 22 -14 28 -20 17 -56 132 -56 179 0
33 7 46 47 87 27 27 80 72 118 100 39 29 104 80 145 114 41 33 79 61 85 62 13
0 113 117 132 154 12 22 13 37 3 89 -7 33 -14 75 -16 91 -3 17 -9 46 -14 65
-5 19 -13 60 -19 90 -11 56 -29 148 -37 188 -2 12 -26 44 -53 71 -51 51 -64
56 -286 121 -95 28 -239 75 -298 97 -51 19 -71 32 -78 50 -19 51 -4 380 21
440 5 12 22 29 38 37 46 23 185 53 357 76 263 35 284 42 347 107 30 30 45 62
76 158 22 66 54 158 71 205 44 120 48 165 21 217 -26 50 -155 200 -290 338
-103 105 -150 166 -150 195 0 29 48 124 74 149 14 13 28 36 31 51 3 15 19 40
35 55 17 16 30 34 30 39 0 6 20 32 45 59 34 35 52 47 75 47 42 0 186 -49 395
-135 137 -56 225 -85 258 -85 36 0 117 53 241 159 125 106 221 201 240 240 22
41 12 118 -45 336 -6 22 -19 81 -29 130 -10 50 -23 106 -29 125 -5 19 -9 60
-8 90 l2 54 65 38 c103 60 201 106 289 137 l81 29 38 -28 c38 -28 100 -99 175
-201 115 -154 160 -209 215 -261 63 -60 92 -73 145 -65 125 20 346 63 441 86
70 17 145 109 160 196 4 22 18 74 31 115 14 41 38 118 54 170 33 107 71 201
90 224 15 18 58 25 131 20 30 -2 100 -6 155 -10z"/>
<path d="M3535 6129 c-27 -5 -79 -13 -115 -17 -36 -5 -81 -14 -100 -20 -43
-13 -112 -30 -163 -41 -21 -5 -44 -14 -50 -20 -6 -6 -23 -11 -37 -11 -14 0
-35 -7 -46 -15 -10 -8 -25 -15 -32 -15 -39 -1 -387 -177 -457 -232 -5 -4 -57
-42 -115 -85 -109 -80 -410 -371 -410 -397 0 -2 -29 -44 -65 -93 -36 -48 -68
-93 -72 -99 -18 -24 -34 -50 -43 -71 -5 -12 -21 -40 -35 -62 -14 -22 -25 -47
-25 -55 0 -7 -7 -19 -15 -26 -8 -7 -15 -20 -15 -30 0 -10 -7 -23 -15 -30 -17
-14 -21 -70 -5 -70 6 0 13 12 16 28 3 15 17 35 30 45 37 27 34 13 -19 -88 -32
-62 -47 -68 -47 -20 0 21 -4 34 -10 30 -18 -11 -10 -55 14 -82 25 -26 46 -24
46 5 0 9 7 26 15 36 8 11 15 27 15 37 0 9 7 22 15 29 8 7 15 21 15 32 0 10 7
21 15 24 8 4 15 14 15 23 0 9 5 22 11 28 13 13 33 47 49 83 6 13 15 27 19 30
4 3 18 23 31 45 13 22 28 45 32 50 5 6 38 51 75 100 123 167 353 381 538 502
44 29 85 56 91 60 49 36 313 163 338 163 7 0 21 7 32 15 10 8 28 15 39 15 11
0 33 7 49 15 15 8 38 15 50 15 11 0 34 7 50 15 15 8 40 15 55 15 14 0 46 6 71
14 93 30 223 41 465 40 274 0 405 -16 575 -70 25 -8 54 -14 65 -14 11 -1 29
-7 39 -15 11 -8 30 -15 42 -15 12 0 35 -6 51 -14 15 -8 46 -22 68 -31 101 -41
266 -123 299 -148 6 -4 47 -31 91 -60 44 -28 82 -54 85 -57 3 -3 37 -30 75
-59 69 -53 345 -326 345 -340 0 -4 11 -21 25 -37 40 -44 165 -236 165 -251 0
-7 4 -13 10 -13 5 0 21 -25 35 -55 15 -30 30 -57 36 -60 5 -4 9 -15 9 -26 0
-11 7 -22 15 -25 8 -4 15 -15 15 -25 0 -23 39 -99 50 -99 5 0 11 -9 15 -19 3
-10 15 -21 27 -24 16 -5 19 -12 16 -31 -4 -18 -1 -26 8 -26 19 0 18 64 -1 80
-8 7 -15 25 -15 40 0 16 -7 30 -15 34 -8 3 -15 16 -15 30 0 21 -13 55 -42 106
-4 8 -11 22 -14 30 -3 8 -19 42 -36 75 -17 33 -38 75 -47 93 -8 17 -19 32 -23
32 -4 0 -8 5 -8 11 0 6 -8 21 -17 34 -10 12 -25 33 -33 45 -37 55 -107 148
-133 175 -15 17 -51 57 -79 90 -29 33 -85 89 -126 125 -41 36 -82 72 -91 81
-105 102 -386 270 -611 367 -19 8 -43 19 -52 23 -10 5 -34 13 -55 18 -21 5
-51 14 -68 19 -91 31 -132 42 -153 42 -13 0 -32 5 -43 11 -11 5 -52 14 -92 19
-40 6 -94 14 -122 19 -61 12 -501 12 -570 0z m-1729 -1274 c-3 -9 -11 -13 -16
-10 -8 5 -7 11 1 21 14 18 24 11 15 -11z"/>
<path d="M3769 5226 c-3 -3 -56 -10 -118 -15 -62 -5 -118 -14 -124 -20 -6 -6
-27 -11 -47 -11 -19 0 -48 -7 -64 -15 -15 -8 -35 -15 -43 -15 -15 0 -76 -24
-103 -41 -8 -5 -22 -12 -30 -15 -19 -7 -97 -46 -118 -59 -201 -122 -327 -243
-470 -451 -37 -55 -112 -204 -112 -225 0 -10 -4 -19 -10 -19 -5 0 -12 -16 -16
-37 -4 -20 -13 -48 -20 -62 -8 -14 -14 -41 -14 -59 0 -18 -5 -43 -11 -54 -12
-23 -31 -201 -30 -293 0 -86 17 -256 29 -296 6 -19 18 -61 27 -94 9 -33 23
-73 31 -88 8 -16 14 -33 14 -39 0 -10 58 -130 83 -173 101 -168 212 -292 367
-409 52 -39 113 -80 135 -91 22 -11 46 -26 53 -32 7 -7 19 -13 26 -13 7 0 33
-10 57 -23 52 -28 167 -67 195 -67 11 0 25 -5 31 -11 10 -10 73 -20 253 -39
81 -8 142 -5 329 20 41 5 79 14 85 20 5 5 21 10 36 10 14 0 38 7 54 15 15 8
35 15 44 15 14 0 123 47 162 70 8 5 35 19 58 31 79 40 206 140 302 239 108
111 98 99 168 203 28 43 52 84 52 92 0 8 4 15 8 15 5 0 16 19 26 43 10 23 24
56 32 72 24 55 54 149 54 170 0 12 5 26 10 31 6 6 15 42 20 80 5 38 14 106 20
151 8 59 8 109 0 185 -16 159 -28 236 -40 257 -5 11 -10 30 -10 43 0 13 -7 36
-15 52 -8 15 -15 33 -15 38 0 25 -84 195 -132 268 -74 111 -91 133 -173 219
-84 88 -227 202 -285 228 -8 4 -17 10 -20 13 -7 10 -96 50 -109 50 -6 0 -11 4
-11 10 0 5 -12 13 -27 16 -15 4 -38 13 -52 20 -14 8 -36 14 -48 14 -12 0 -24
4 -28 9 -3 6 -27 13 -53 17 -26 3 -56 11 -66 16 -11 6 -62 14 -115 19 -53 5
-125 11 -161 15 -36 3 -68 3 -71 0z m201 -65 c91 -10 270 -54 325 -80 22 -10
56 -25 75 -32 54 -21 196 -107 259 -157 92 -74 233 -222 289 -305 93 -138 170
-311 201 -452 33 -152 41 -375 17 -469 -9 -32 -13 -69 -10 -81 3 -13 1 -26 -5
-29 -6 -4 -11 -15 -11 -25 0 -25 -32 -124 -64 -195 -14 -32 -26 -64 -26 -70 0
-15 -96 -171 -140 -226 -77 -99 -274 -282 -348 -324 -239 -134 -363 -176 -589
-197 -137 -13 -340 -2 -382 21 -11 5 -34 10 -51 10 -37 0 -144 33 -220 68 -78
35 -234 128 -251 148 -8 10 -26 25 -41 34 -49 30 -212 197 -256 261 -9 14 -33
50 -53 80 -65 97 -154 323 -171 434 -5 33 -14 81 -19 107 -16 71 -8 309 13
408 28 135 42 184 58 211 9 13 22 42 29 64 14 41 112 214 134 237 7 7 21 27
32 45 27 42 139 159 195 201 25 19 47 37 50 41 31 39 278 178 360 203 247 74
394 90 600 69z"/>
<path d="M3695 5004 c-38 -7 -88 -13 -110 -13 -23 -1 -46 -6 -52 -12 -7 -7
-28 -13 -49 -15 -21 -2 -40 -8 -43 -13 -3 -5 -23 -12 -43 -16 -21 -4 -42 -13
-49 -21 -6 -8 -19 -14 -29 -14 -10 0 -23 -7 -30 -15 -7 -8 -19 -15 -27 -15 -8
0 -32 -13 -53 -30 -21 -16 -41 -30 -45 -30 -19 0 -194 -150 -195 -168 -1 -4
-14 -18 -30 -32 -17 -13 -30 -31 -30 -40 1 -9 18 4 43 32 61 68 278 238 303
238 6 0 83 37 104 50 8 5 50 19 93 32 42 12 77 25 77 29 0 4 44 10 98 14 53 4
103 12 109 17 31 25 364 -20 458 -62 11 -5 44 -19 74 -30 30 -11 63 -27 75
-35 11 -8 28 -15 38 -15 10 0 18 -4 18 -10 0 -5 6 -10 13 -10 14 0 50 -25 75
-52 9 -10 20 -18 25 -18 5 0 26 -14 46 -30 20 -17 42 -35 49 -41 7 -6 16 -8
20 -4 7 6 -87 104 -101 105 -10 0 -71 43 -75 53 -2 4 -10 7 -17 7 -8 0 -20 6
-27 13 -23 20 -78 47 -99 47 -11 0 -22 7 -25 15 -3 8 -21 17 -40 21 -19 3 -37
10 -40 15 -3 5 -19 9 -36 9 -16 0 -42 6 -56 14 -28 15 -252 47 -312 45 -19 -1
-66 -7 -105 -15z"/>
<path d="M4640 4659 c0 -19 37 -55 47 -45 4 3 -5 19 -20 34 -20 19 -27 22 -27
11z"/>
<path d="M4700 4593 c1 -10 36 -53 44 -53 13 0 5 21 -14 40 -21 21 -30 25 -30
13z"/>
<path d="M3723 4375 c-69 -19 -189 -80 -196 -99 -4 -9 -13 -16 -21 -16 -30 0
-136 -159 -136 -203 0 -10 -8 -32 -17 -50 -24 -43 -23 -215 1 -249 9 -12 16
-31 16 -41 0 -11 17 -46 37 -79 79 -127 231 -225 366 -234 67 -5 71 -4 53 10
-13 11 -41 16 -83 16 -35 0 -63 4 -63 9 0 5 -24 21 -54 36 -52 26 -145 105
-159 136 -4 7 -18 34 -32 58 -13 24 -27 59 -31 77 -3 19 -10 37 -15 40 -5 3
-9 41 -9 84 0 43 4 81 9 84 5 3 12 21 15 39 10 56 65 149 119 201 28 27 117
86 131 86 6 0 24 7 41 16 21 11 59 15 135 15 76 0 114 -4 135 -15 17 -9 35
-16 42 -16 14 0 94 -54 128 -85 54 -50 110 -144 121 -202 3 -18 10 -36 15 -39
5 -3 9 -41 9 -84 0 -43 -4 -81 -9 -84 -5 -3 -12 -21 -15 -40 -11 -57 -64 -145
-123 -202 -30 -30 -61 -54 -68 -54 -7 0 -15 -7 -19 -15 -3 -8 -15 -15 -26 -15
-11 0 -20 -4 -20 -10 0 -31 92 16 169 86 34 31 61 62 61 70 0 7 6 17 13 21 41
27 95 224 82 306 -9 62 -52 183 -79 224 -46 68 -61 88 -70 92 -5 2 -22 17 -39
32 -16 16 -38 29 -48 29 -11 0 -19 4 -19 9 0 5 -33 21 -72 36 -90 33 -200 41
-275 20z"/>
<path d="M3715 4201 c-3 -5 -18 -12 -33 -16 -31 -6 -112 -74 -112 -93 0 -21 7
-17 87 48 7 5 44 15 82 22 56 10 86 9 148 -1 66 -11 85 -19 133 -57 31 -24 59
-44 63 -44 19 0 3 28 -38 67 -69 65 -120 83 -231 83 -51 0 -95 -4 -99 -9z"/>
<path d="M3545 4067 c-4 -10 -5 -21 -1 -24 10 -10 18 4 13 24 -4 17 -4 17 -12
0z"/>
<path d="M4055 3609 c-16 -16 -35 -29 -41 -29 -7 0 -14 -6 -17 -14 -3 -8 -18
-16 -33 -18 -30 -3 -46 -28 -19 -28 33 0 155 88 155 112 0 14 -14 7 -45 -23z"/>
<path d="M3625 3556 c44 -36 99 -47 80 -17 -3 6 -19 11 -36 11 -19 0 -29 5
-29 15 0 9 -9 15 -22 15 -22 0 -21 -1 7 -24z"/>
<path d="M3733 3509 c33 -19 119 -22 157 -6 34 15 33 15 -70 16 -78 0 -100 -2
-87 -10z"/>
<path d="M3855 3420 c-10 -16 102 -16 120 1 5 5 -15 9 -52 9 -34 0 -65 -4 -68
-10z"/>
<path d="M2870 3086 c0 -5 7 -16 15 -25 8 -9 26 -29 39 -46 13 -16 27 -27 30
-24 3 3 -14 28 -39 55 -24 27 -45 45 -45 40z"/>
<path d="M4696 3019 c-11 -10 -16 -22 -13 -26 7 -6 47 30 47 42 0 10 -15 3
-34 -16z"/>
<path d="M4644 2967 c-33 -35 -84 -77 -93 -77 -6 0 -11 -7 -11 -15 0 -8 4 -15
10 -15 10 0 120 104 120 114 0 10 -14 6 -26 -7z"/>
<path d="M3016 2925 c9 -13 31 -34 48 -45 18 -10 41 -29 51 -41 11 -11 33 -27
50 -35 16 -8 50 -26 75 -39 25 -14 50 -25 56 -25 6 0 17 -7 24 -15 7 -8 23
-15 36 -15 13 0 24 -4 24 -8 0 -11 143 -55 164 -51 35 8 14 24 -34 27 -33 2
-53 8 -57 18 -3 8 -19 14 -39 14 -22 0 -37 6 -40 15 -4 9 -19 15 -35 15 -16 0
-29 4 -29 9 0 5 -26 22 -57 37 -32 15 -60 29 -63 33 -8 10 -44 31 -62 37 -10
4 -18 9 -18 13 0 7 -96 81 -105 81 -3 0 2 -11 11 -25z"/>
<path d="M4495 2849 c-4 -5 -17 -14 -28 -20 -27 -11 -57 -30 -75 -46 -7 -7
-22 -13 -31 -13 -10 0 -24 -7 -31 -15 -7 -8 -18 -15 -25 -15 -7 0 -26 -7 -41
-15 -16 -8 -39 -15 -52 -15 -12 0 -25 -7 -28 -15 -4 -10 -21 -15 -55 -15 -34
0 -51 -5 -57 -16 -8 -14 -39 -16 -245 -16 -131 0 -237 -3 -237 -8 0 -20 342
-28 426 -9 27 5 72 15 99 20 28 6 54 15 60 20 5 5 22 9 38 9 16 0 41 6 55 14
15 8 38 19 52 25 14 5 48 24 75 41 28 16 57 33 65 37 26 12 70 46 70 55 0 12
-28 10 -35 -3z"/>
<path d="M1657 4654 c-11 -11 -8 -44 3 -44 15 0 24 30 13 41 -5 5 -12 6 -16 3z"/>
<path d="M6020 4479 c0 -11 5 -17 10 -14 6 3 10 13 10 21 0 8 -4 14 -10 14 -5
0 -10 -9 -10 -21z"/>
<path d="M1680 3335 c0 -8 5 -15 10 -15 6 0 10 7 10 15 0 8 -4 15 -10 15 -5 0
-10 -7 -10 -15z"/>
<path d="M5960 3335 c0 -8 5 -15 10 -15 6 0 10 7 10 15 0 8 -4 15 -10 15 -5 0
-10 -7 -10 -15z"/>
<path d="M1710 3226 c0 -14 5 -28 10 -31 6 -3 10 5 10 19 0 14 -4 28 -10 31
-6 3 -10 -5 -10 -19z"/>
<path d="M5935 3237 c-4 -10 -5 -21 -1 -24 10 -10 18 4 13 24 -4 17 -4 17 -12
0z"/>
<path d="M1740 3143 c0 -24 5 -43 10 -43 13 0 13 50 0 70 -7 11 -10 4 -10 -27z"/>
<path d="M5907 3163 c-11 -10 -8 -63 3 -63 6 0 10 16 10 35 0 36 -2 40 -13 28z"/>
<path d="M1772 3050 c2 -19 8 -34 13 -32 12 3 7 43 -7 57 -6 7 -8 -2 -6 -25z"/>
<path d="M5876 3065 c-9 -24 -22 -53 -71 -158 -25 -52 -34 -82 -27 -89 10 -10
52 65 52 95 0 10 7 20 15 23 9 4 15 19 15 36 0 17 7 36 16 42 10 8 14 22 12
41 -4 26 -5 27 -12 10z"/>
<path d="M1800 2977 c0 -22 6 -37 15 -41 8 -3 15 -14 15 -24 0 -10 11 -39 25
-63 14 -24 27 -51 31 -59 3 -8 12 -28 21 -43 8 -15 20 -38 26 -50 7 -12 30
-49 52 -81 22 -33 45 -66 50 -75 6 -8 15 -21 20 -28 6 -7 15 -18 20 -25 6 -7
31 -40 57 -73 51 -67 228 -242 298 -295 25 -19 50 -40 55 -46 15 -17 195 -134
206 -134 5 0 9 -4 9 -9 0 -5 10 -13 23 -17 12 -4 24 -10 27 -14 7 -9 172 -88
265 -126 17 -6 47 -19 68 -28 21 -9 46 -16 56 -16 10 0 32 -7 47 -15 16 -8 40
-15 55 -15 14 0 29 -4 35 -10 5 -5 40 -14 76 -19 37 -5 72 -12 78 -16 59 -37
740 -37 799 0 7 3 42 11 79 16 36 5 71 14 76 19 6 6 21 10 35 10 15 0 39 7 55
15 15 8 37 15 47 15 10 0 35 7 56 16 21 9 54 23 73 31 82 35 98 42 148 64 28
13 52 27 52 31 0 3 14 9 30 13 17 4 30 11 30 16 0 5 11 11 25 15 14 3 25 10
25 14 0 4 8 10 18 14 9 3 29 14 44 23 109 73 144 97 153 107 6 7 37 32 70 58
66 50 228 214 290 293 22 28 44 55 50 62 5 7 16 19 23 27 6 8 12 19 12 23 1 4
14 24 30 43 17 19 30 39 30 46 0 6 7 17 15 24 9 7 25 33 35 56 11 24 24 46 30
49 15 9 13 58 -2 53 -7 -3 -15 -13 -17 -24 -2 -10 -16 -35 -32 -55 -16 -20
-29 -39 -29 -42 0 -9 -67 -104 -94 -133 -14 -16 -26 -32 -26 -35 0 -3 -10 -17
-22 -31 -13 -14 -45 -52 -73 -84 -62 -73 -117 -127 -179 -179 -27 -22 -64 -55
-83 -73 -31 -29 -85 -69 -134 -98 -11 -6 -27 -18 -36 -27 -10 -8 -60 -36 -110
-62 -51 -26 -93 -51 -93 -56 0 -5 -5 -9 -11 -9 -6 0 -45 -16 -86 -35 -41 -19
-79 -35 -84 -35 -5 0 -31 -11 -57 -23 -26 -13 -85 -34 -132 -46 -47 -12 -98
-27 -115 -33 -16 -6 -55 -14 -85 -18 -30 -4 -63 -11 -72 -15 -9 -3 -89 -12
-178 -18 -167 -13 -461 -2 -560 21 -25 6 -65 16 -90 22 -25 6 -72 17 -105 24
-33 8 -80 22 -105 31 -25 10 -72 27 -105 39 -33 12 -90 36 -128 54 -37 18 -72
32 -77 32 -6 0 -10 4 -10 9 0 4 -42 30 -92 56 -51 25 -102 55 -113 65 -11 9
-31 23 -44 30 -27 14 -93 64 -133 100 -15 14 -46 41 -68 60 -94 81 -124 111
-242 251 -17 20 -46 53 -65 74 -18 21 -33 42 -33 47 0 6 -13 27 -29 47 -15 20
-31 46 -35 59 -4 12 -12 22 -17 22 -5 0 -9 6 -9 14 0 7 -7 19 -15 26 -8 7 -15
21 -15 31 0 11 -4 19 -9 19 -9 0 -91 160 -91 178 0 6 -4 14 -10 17 -6 4 -10
-8 -10 -28z"/>
<path d="M1670 2845 c0 -8 5 -15 10 -15 6 0 10 7 10 15 0 8 -4 15 -10 15 -5 0
-10 -7 -10 -15z"/>
<path d="M1700 2781 c0 -12 5 -21 10 -21 6 0 10 6 10 14 0 8 -4 18 -10 21 -5
3 -10 -3 -10 -14z"/>
<path d="M1730 2716 c0 -8 5 -18 10 -21 6 -3 10 1 10 9 0 8 -4 18 -10 21 -5 3
-10 -1 -10 -9z"/>
<path d="M1756 2665 c4 -8 10 -15 15 -15 5 0 9 7 9 15 0 8 -7 15 -15 15 -9 0
-12 -6 -9 -15z"/>
<path d="M5857 2663 c-4 -3 -7 -16 -7 -27 1 -21 1 -21 15 -2 8 11 15 23 15 28
0 10 -14 11 -23 1z"/>
<path d="M1790 2615 c0 -9 5 -21 10 -28 6 -7 17 -21 25 -32 14 -20 14 -20 15
3 0 12 -7 25 -15 28 -8 4 -15 15 -15 25 0 10 -4 19 -10 19 -5 0 -10 -7 -10
-15z"/>
<path d="M5827 2614 c-4 -4 -7 -14 -7 -23 0 -11 3 -12 11 -4 6 6 10 16 7 23
-2 6 -7 8 -11 4z"/>
<path d="M5798 2564 c-5 -4 -8 -16 -8 -28 0 -14 3 -17 11 -9 6 6 9 19 7 28 -1
9 -6 13 -10 9z"/>
<path d="M1850 2527 c0 -18 20 -58 40 -80 22 -24 32 -38 64 -86 15 -24 43 -59
62 -78 19 -18 34 -37 34 -40 0 -8 222 -226 276 -271 21 -18 58 -48 80 -67 23
-19 44 -35 47 -35 3 0 33 -18 67 -41 34 -22 82 -52 108 -65 26 -14 70 -38 97
-55 28 -16 61 -34 75 -40 14 -6 42 -19 62 -30 91 -47 306 -119 398 -134 25 -4
50 -11 55 -15 6 -4 35 -10 65 -14 30 -3 80 -10 110 -15 30 -6 136 -13 235 -17
226 -8 414 7 595 48 25 5 63 12 85 15 22 3 49 12 60 19 11 8 30 14 43 14 13 0
38 6 55 14 18 8 64 26 102 40 121 46 229 98 320 156 17 11 46 28 65 38 19 11
46 25 60 33 44 24 183 131 239 184 65 61 121 113 153 141 35 32 78 81 78 91 0
4 19 28 43 53 24 25 59 67 78 94 19 27 44 61 57 74 20 23 30 52 16 52 -8 0
-43 -43 -44 -52 0 -5 -8 -16 -17 -26 -10 -10 -36 -41 -58 -67 -22 -27 -48 -57
-57 -67 -10 -10 -18 -20 -18 -23 0 -14 -233 -233 -315 -298 -57 -44 -146 -107
-152 -107 -4 0 -26 -14 -47 -30 -22 -17 -46 -30 -53 -30 -7 0 -13 -4 -13 -8 0
-4 -15 -15 -32 -23 -18 -9 -64 -32 -103 -53 -38 -20 -74 -36 -81 -36 -6 0 -17
-7 -24 -15 -7 -8 -23 -15 -36 -15 -13 0 -24 -4 -24 -10 0 -5 -8 -10 -17 -10
-10 -1 -36 -9 -58 -20 -22 -11 -47 -19 -56 -20 -9 0 -30 -7 -45 -15 -16 -8
-41 -15 -56 -15 -15 0 -29 -4 -32 -9 -3 -5 -33 -12 -66 -16 -33 -4 -62 -11
-65 -15 -3 -4 -33 -11 -67 -15 -35 -4 -92 -13 -128 -21 -74 -16 -459 -18 -550
-3 -30 4 -91 13 -135 20 -44 6 -84 14 -90 19 -5 4 -36 11 -67 14 -32 4 -60 11
-63 16 -2 4 -25 11 -50 14 -24 4 -47 11 -50 15 -2 5 -20 12 -39 15 -20 4 -48
13 -63 21 -15 8 -33 15 -40 15 -6 0 -33 11 -60 24 -26 12 -84 40 -128 61 -44
22 -86 45 -93 52 -7 7 -20 13 -28 13 -8 0 -14 5 -14 10 0 6 -6 10 -14 10 -8 0
-21 6 -28 13 -7 7 -38 28 -68 46 -169 104 -443 353 -549 502 -14 19 -30 38
-38 42 -7 4 -13 12 -13 18 0 11 -15 31 -42 57 -10 9 -18 22 -18 29 0 6 -4 15
-10 18 -5 3 -10 0 -10 -8z"/>
</g>
</svg>
